<?xml version="1.0" encoding="UTF-8"?>
<svg xmlns="http://www.w3.org/2000/svg" xmlns:xlink="http://www.w3.org/1999/xlink" width="4713" height="3361" viewBox="0 0 4713 3361">

<path fill-rule="evenodd" fill="rgb(97.65625%, 70.506287%, 14.109802%)" fill-opacity="1" d="M 2356.648438 262.210938 C 3139.980469 262.210938 3774.988281 897.21875 3774.988281 1680.539062 C 3774.988281 2463.871094 3139.980469 3098.878906 2356.648438 3098.878906 C 1573.328125 3098.878906 938.316406 2463.871094 938.316406 1680.539062 C 938.316406 897.21875 1573.328125 262.210938 2356.648438 262.210938 "/>
<path fill-rule="evenodd" fill="rgb(94.139099%, 78.125%, 63.084412%)" fill-opacity="1" d="M 3126.851562 2871.660156 C 2905.050781 3015.375 2640.621094 3098.878906 2356.648438 3098.878906 C 2058.210938 3098.878906 1781.359375 3006.628906 1552.890625 2849.195312 C 1592.488281 2819.929688 1642.191406 2785.472656 1701.078125 2749.023438 C 1866.550781 2646.585938 2013.109375 2599.304688 2013.109375 2599.304688 L 2024.140625 2455.898438 C 2024.140625 2455.898438 1789.328125 2358.191406 1707.378906 2140.710938 C 1625.429688 1923.230469 1682.160156 1604.898438 1663.25 1453.609375 C 1644.339844 1302.320312 1589.179688 968.21875 1652.21875 854.761719 C 1715.261719 741.289062 1861.808594 761.769531 1861.808594 761.769531 C 1861.808594 761.769531 1931.160156 449.738281 2307.808594 470.21875 C 2684.449219 490.710938 2752.21875 820.089844 2752.21875 820.089844 C 2752.21875 820.089844 2786.101562 730.269531 2845.199219 663.28125 C 2904.300781 596.308594 3020.128906 594.730469 3020.128906 594.730469 C 3020.128906 594.730469 2942.128906 642.011719 2898.789062 706.621094 C 2855.449219 771.238281 2834.960938 847.671875 2833.378906 839 C 2831.808594 830.339844 2894.851562 757.839844 2957.878906 716.871094 C 3020.921875 675.890625 3078.449219 676.679688 3078.449219 676.679688 C 3078.449219 676.679688 3009.121094 722.390625 2947.660156 800.390625 C 2886.199219 878.398438 2872.011719 901.25 2872.011719 901.25 C 2872.011719 901.25 3121.019531 946.171875 3091.078125 1140.011719 C 3061.128906 1333.839844 2897.238281 1532.410156 2897.238281 1532.410156 C 2897.238281 1532.410156 2935.859375 1575.75 2919.308594 1660.058594 C 2902.769531 1744.371094 2823.199219 1841.289062 2786.160156 1872.019531 C 2749.128906 1902.75 2723.128906 1903.550781 2723.128906 1903.550781 C 2723.128906 1903.550781 2707.371094 1940.578125 2697.910156 1959.488281 C 2688.449219 1978.398438 2688.449219 1978.398438 2688.449219 1978.398438 L 2690.828125 2388.929688 L 2801.148438 2403.113281 L 2771.210938 2589.074219 C 2771.210938 2589.074219 2986.378906 2755.6875 3126.851562 2871.660156 "/>
<path fill-rule="evenodd" fill="rgb(76.171875%, 58.789062%, 45.872498%)" fill-opacity="1" d="M 1994.289062 3052.125 C 1986.480469 3050.070312 1978.699219 3047.941406 1970.949219 3045.753906 C 2010.21875 2870.386719 2074.949219 2608.859375 2147.609375 2472.34375 C 2250.839844 2278.390625 2250.53125 2276.519531 2250.53125 2276.519531 L 2273.980469 2282.378906 C 2273.980469 2282.390625 2273.660156 2286.820312 2168.878906 2483.6875 C 2097.480469 2617.832031 2033.261719 2877.898438 1994.289062 3052.125 "/>
<path fill-rule="evenodd" fill="rgb(98.4375%, 70.506287%, 47.459412%)" fill-opacity="1" d="M 2024.140625 2455.898438 C 2024.140625 2455.898438 1789.328125 2358.191406 1707.378906 2140.710938 C 1625.429688 1923.230469 1682.160156 1604.898438 1663.25 1453.609375 C 1644.339844 1302.320312 1589.179688 968.21875 1652.21875 854.761719 C 1715.261719 741.289062 1861.808594 761.769531 1861.808594 761.769531 C 1861.808594 761.769531 1931.160156 449.738281 2307.808594 470.21875 C 2684.449219 490.710938 2752.21875 820.089844 2752.21875 820.089844 C 2752.21875 820.089844 2786.101562 730.269531 2845.199219 663.28125 C 2904.300781 596.308594 3020.128906 594.730469 3020.128906 594.730469 C 3020.128906 594.730469 2942.128906 642.011719 2898.789062 706.621094 C 2855.449219 771.238281 2834.960938 847.671875 2833.378906 839 C 2831.808594 830.339844 2894.851562 757.839844 2957.878906 716.871094 C 3020.921875 675.890625 3078.449219 676.679688 3078.449219 676.679688 C 3078.449219 676.679688 3009.121094 722.390625 2947.660156 800.390625 C 2886.199219 878.398438 2872.011719 901.25 2872.011719 901.25 C 2872.011719 901.25 3121.019531 946.171875 3091.078125 1140.011719 C 3061.128906 1333.839844 2897.238281 1532.410156 2897.238281 1532.410156 C 2897.238281 1532.410156 2935.859375 1575.75 2919.308594 1660.058594 C 2902.769531 1744.371094 2823.199219 1841.289062 2786.160156 1872.019531 C 2749.128906 1902.75 2723.128906 1903.550781 2723.128906 1903.550781 C 2723.128906 1903.550781 2707.371094 1940.578125 2697.910156 1959.488281 C 2688.449219 1978.398438 2688.449219 1978.398438 2688.449219 1978.398438 L 2690.828125 2388.929688 L 2024.140625 2455.898438 "/>
<path fill-rule="evenodd" fill="rgb(79.6875%, 55.664062%, 36.083984%)" fill-opacity="1" d="M 2024.140625 2455.898438 C 2024.140625 2455.898438 1968.179688 2432.597656 1901.378906 2383.472656 C 2040.488281 2331.679688 2214.378906 2257.921875 2337.898438 2164.398438 C 2457.640625 2073.738281 2589.429688 2013.730469 2688.460938 1979.808594 L 2690.828125 2388.929688 L 2024.140625 2455.898438 "/>
<path fill-rule="evenodd" fill="rgb(27.43988%, 8.616638%, 10.594177%)" fill-opacity="1" d="M 1649.328125 1348.230469 C 1627.429688 1181.339844 1601.371094 946.28125 1652.21875 854.761719 C 1715.261719 741.289062 1861.808594 761.769531 1861.808594 761.769531 C 1861.808594 761.769531 1931.160156 449.738281 2307.808594 470.21875 C 2684.449219 490.710938 2752.21875 820.089844 2752.21875 820.089844 C 2752.21875 820.089844 2786.101562 730.269531 2845.199219 663.28125 C 2904.300781 596.308594 3020.128906 594.730469 3020.128906 594.730469 C 3020.128906 594.730469 2942.128906 642.011719 2898.789062 706.621094 C 2855.449219 771.238281 2834.960938 847.671875 2833.378906 839 C 2831.808594 830.339844 2894.851562 757.839844 2957.878906 716.871094 C 3020.921875 675.890625 3078.449219 676.679688 3078.449219 676.679688 C 3078.449219 676.679688 3009.121094 722.390625 2947.660156 800.390625 C 2886.199219 878.398438 2872.011719 901.25 2872.011719 901.25 C 2872.011719 901.25 3121.019531 946.171875 3091.078125 1140.011719 C 3061.128906 1333.839844 2897.238281 1532.410156 2897.238281 1532.410156 C 2897.238281 1532.410156 2842.941406 1451.269531 2759.421875 1451.269531 C 2675.890625 1451.269531 2580.550781 1592.308594 2580.550781 1592.308594 C 2580.550781 1592.308594 2553.761719 1554.488281 2542.730469 1497.75 C 2531.699219 1441.019531 2575.828125 1275.550781 2575.828125 1275.550781 C 2575.828125 1275.550781 2311.070312 1264.519531 2243.300781 1229.851562 C 2175.53125 1195.179688 2188.140625 1065.949219 2188.140625 1065.949219 C 2188.140625 1065.949219 1963.558594 1122.679688 1956.46875 1162.070312 C 1949.378906 1201.46875 1967.5 1277.121094 1967.5 1277.121094 C 1967.5 1277.121094 1966.710938 1277.121094 1935.980469 1244.808594 C 1905.25 1212.5 1847.730469 1084.859375 1847.730469 1084.859375 C 1847.730469 1084.859375 1846.941406 1114.011719 1848.511719 1184.921875 C 1850.089844 1255.839844 1858.761719 1285.789062 1861.121094 1299.179688 C 1863.488281 1312.578125 1855.601562 1292.878906 1820.140625 1207.78125 C 1784.691406 1122.671875 1750.800781 1041.519531 1750.800781 1041.519531 C 1750.800781 1041.519531 1735.828125 1146.320312 1701.949219 1235.359375 C 1688.660156 1270.300781 1668.691406 1311.300781 1649.328125 1348.230469 "/>
<path fill-rule="evenodd" fill="rgb(27.43988%, 8.616638%, 10.594177%)" fill-opacity="1" d="M 2019.488281 2453.859375 C 1986.25 2438.871094 1782.539062 2340.171875 1707.378906 2140.710938 C 1679.21875 2065.96875 1667.429688 1979.320312 1663.328125 1891.621094 C 1739.609375 1867.570312 1858.480469 1841.75 1997.46875 1872.058594 C 2207.070312 1917.75 2233.859375 2042.25 2233.859375 2042.25 C 2233.859375 2042.25 2299.269531 2049.351562 2396.191406 2002.070312 C 2493.109375 1954.789062 2563.230469 1837.378906 2563.230469 1837.378906 C 2563.230469 1837.378906 2634.019531 1898 2723.128906 1903.550781 C 2723.128906 1903.550781 2707.371094 1940.578125 2697.910156 1959.488281 C 2688.449219 1978.398438 2688.449219 1978.398438 2688.449219 1978.398438 C 2688.449219 1978.398438 2469.480469 2354.300781 2228.359375 2417.335938 C 2139.28125 2440.625 2070.640625 2450.570312 2019.488281 2453.859375 Z M 1788.671875 2048.570312 C 1810.738281 2048.570312 1915.539062 2043.828125 1986.460938 2035.171875 C 2057.378906 2026.5 2065.25 2020.191406 2065.25 2020.191406 C 2065.25 2020.191406 2018.761719 2120.269531 1916.328125 2121.839844 C 1813.890625 2123.421875 1788.671875 2048.570312 1788.671875 2048.570312 "/>
</svg>
